HIERARCHY
ROOT Hips
{
	OFFSET 0.00000 0.00000 0.00000
	CHANNELS 6 Xposition Yposition Zposition Zrotation Yrotation Xrotation 
	JOINT LHipJoint
	{
		OFFSET 0 0 0
		CHANNELS 3 Zrotation Yrotation Xrotation
		JOINT LeftHip
		{
			OFFSET 1.75344 -1.53157 0.77399
			CHANNELS 3 Zrotation Yrotation Xrotation
			JOINT LeftKnee
			{
				OFFSET 2.25415 -6.19323 0.00000
				CHANNELS 3 Zrotation Yrotation Xrotation
				JOINT LeftAnkle
				{
					OFFSET 2.30342 -6.32861 0.00000
					CHANNELS 3 Zrotation Yrotation Xrotation
					JOINT LeftToe
					{
						OFFSET 0.10958 -0.30108 1.49206
						CHANNELS 3 Zrotation Yrotation Xrotation
						End Site
						{
							OFFSET 0.00000 -0.00000 0.77783
						}
					}
				}
			}
		}
	}
	JOINT RHipJoint
	{
		OFFSET 0 0 0
		CHANNELS 3 Zrotation Yrotation Xrotation
		JOINT RightHip
		{
			OFFSET -1.81912 -1.53156 0.77399
			CHANNELS 3 Zrotation Yrotation Xrotation
			JOINT RightKnee
			{
				OFFSET -2.22882 -6.12365 0.00000
				CHANNELS 3 Zrotation Yrotation Xrotation
				JOINT RightAnkle
				{
					OFFSET -2.21943 -6.09785 0.00000
					CHANNELS 3 Zrotation Yrotation Xrotation
					JOINT RightToe
					{
						OFFSET -0.18931 -0.52012 1.59379
						CHANNELS 3 Zrotation Yrotation Xrotation
						End Site
						{
							OFFSET -0.00000 -0.00000 0.84686
						}
					}
				}
			}
		}
	}
	JOINT lowerback
	{
		OFFSET 0 0 0
		CHANNELS 3 Zrotation Yrotation Xrotation
		JOINT Chest
		{
			OFFSET -0.00200 1.66634 -0.14248
			CHANNELS 3 Zrotation Yrotation Xrotation
			JOINT Chest2
			{
				OFFSET -0.00875 1.64542 0.09514
				CHANNELS 3 Zrotation Yrotation Xrotation
				JOINT lowerneck
				{
					OFFSET 0 0 0
					CHANNELS 3 Zrotation Yrotation Xrotation
					JOINT Neck
					{
						OFFSET 0.02257 1.59605 0.00839
						CHANNELS 3 Zrotation Yrotation Xrotation
						JOINT Head
						{
							OFFSET -0.10214 1.57530 -0.23335
							CHANNELS 3 Zrotation Yrotation Xrotation
							End Site
							{
								OFFSET -0.03588 1.60717 -0.08062
							}
						}
					}
				}
				JOINT LeftCollar
				{
					OFFSET 0 0 0
					CHANNELS 3 Zrotation Yrotation Xrotation
					JOINT LeftShoulder
					{
						OFFSET 2.54983 1.10186 0.40078
CHANNELS 3 Zrotation Xrotation Yrotation
						JOINT LeftElbow
						{
OFFSET 0 -4.288400 0.000000
CHANNELS 3 Zrotation Xrotation Yrotation
							JOINT LeftWrist
							{
OFFSET 0 -3.065520 -0.000000
CHANNELS 3 Zrotation Xrotation Yrotation
								JOINT lhand
								{
									OFFSET 0 0 0
CHANNELS 3 Zrotation Xrotation Yrotation
									JOINT LFingers
									{
OFFSET 0 -0.753040 0.000000
CHANNELS 3 Zrotation Xrotation Yrotation
										End Site
										{
OFFSET 0 -0.607120 0.000000
										}
									}
								}
								JOINT LThumb
								{
OFFSET 0 0.000000 0.000000
CHANNELS 3 Zrotation Xrotation Yrotation
									End Site
									{
OFFSET 0 -0.616390 0.616390
									}
								}
							}
						}
					}
				}
				JOINT RightCollar
				{
					OFFSET 0 0 0
					CHANNELS 3 Zrotation Yrotation Xrotation
					JOINT RightShoulder
					{
						OFFSET -2.60909 1.35448 0.21802
CHANNELS 3 Zrotation Xrotation Yrotation
						JOINT RightElbow
						{
OFFSET 0 -4.521720 -0.000000
CHANNELS 3 Zrotation Xrotation Yrotation
							JOINT RightWrist
							{
OFFSET 0 -2.891400 0.000000
CHANNELS 3 Zrotation Xrotation Yrotation
								JOINT rhand
								{
									OFFSET 0 0 0
CHANNELS 3 Zrotation Xrotation Yrotation
									JOINT RFingers
									{
OFFSET 0 -0.680540 0.000000
CHANNELS 3 Zrotation Xrotation Yrotation
										End Site
										{
OFFSET 0 -0.548670 0.000000
										}
									}
								}
								JOINT RThumb
								{
OFFSET 0 0.000000 0.000000
CHANNELS 3 Zrotation Xrotation Yrotation
									End Site
									{
OFFSET 0 -0.557050 0.557050
									}
								}
							}
						}
					}
				}
			}
		}
	}
}
MOTION
Frames: 11
Frame Time: 0.008333333333333333
8.924766 13.976410 22.550528 -177.697184 1.017999 193.271903 0.000000 0.000000 0.000000 -15.074232 -19.595014 -34.019078 11.100782 17.983747 63.107989 4.319296 -2.432307 -38.915422 2.804525 -10.371620 -30.188916 0.000000 0.000000 0.000000 25.186507 19.903444 -29.156146 -9.640375 -17.202414 58.279301 -2.856773 -17.062287 -41.376955 -0.102610 -2.065326 5.686179 1.396552 1.403798 13.463161 0.300978 2.193323 -3.959744 -0.975959 0.955637 -11.884886 -6.403282 -2.560601 -9.111112 6.572868 -3.186273 -4.232003 3.141279 -1.628974 0.458417 0.000000 0.000000 0.000000 0.465968 6.949524 -20.367208 12.802829 -20.997511 2.382290 10.582585 27.736799 33.655620 0.000000 0.000000 0.000000 -7.125000 0.000000 0.000000 -12.054080 -3.467356 -13.046184 0.000000 0.000000 0.000000 -3.433309 4.471365 35.130796 -13.544226 -22.079293 -2.654483 -17.851851 52.336642 60.056207 0.000000 0.000000 0.000000 7.125000 0.000000 0.000000 86.376118 -77.947029 98.595048
8.927820 13.988673 22.513633 -177.693725 1.035104 193.227361 0.000000 0.000000 0.000000 -15.212897 -19.326435 -33.536646 10.946496 17.908076 62.606771 4.351429 -2.449655 -39.062238 2.840115 -10.430817 -30.384337 0.000000 0.000000 0.000000 25.288997 19.640864 -28.791830 -9.520119 -17.130496 57.871403 -2.840177 -16.992685 -41.250194 -0.103234 -2.071616 5.703544 1.303421 1.433190 13.118972 0.329082 2.211300 -3.874082 -0.884631 0.976863 -11.586503 -6.459527 -2.590052 -9.403228 6.550099 -3.211422 -4.098401 3.140239 -1.637676 0.554626 0.000000 0.000000 0.000000 0.335850 6.701532 -19.992538 12.669230 -20.800402 2.334699 10.909522 28.557450 33.503325 0.000000 0.000000 0.000000 -7.125000 0.000000 0.000000 -11.861519 -3.365788 -12.808978 0.000000 0.000000 0.000000 -3.423684 4.256493 34.865343 -13.419636 -21.898786 -2.607874 -17.604724 52.757286 60.298708 0.000000 0.000000 0.000000 7.125000 0.000000 0.000000 87.157823 -77.837379 99.522952
8.930633 14.003188 22.476389 -177.714541 1.028241 193.175601 0.000000 0.000000 0.000000 -15.393662 -19.048058 -33.028277 10.776027 17.823461 62.051818 4.367182 -2.365658 -39.154730 2.917192 -10.559428 -30.808428 0.000000 0.000000 0.000000 25.366861 19.319673 -28.415616 -9.384531 -17.048693 57.410405 -2.824762 -16.904975 -41.115056 -0.103291 -2.072460 5.705907 1.199902 1.452149 12.716654 0.354737 2.211300 -3.754304 -0.783419 0.990872 -11.215972 -6.544311 -2.608787 -9.693813 6.558932 -3.221436 -4.011535 3.156498 -1.639926 0.635810 0.000000 0.000000 0.000000 0.210783 6.389286 -19.691263 12.528916 -20.592969 2.284964 11.203371 29.390217 33.288241 0.000000 0.000000 0.000000 -7.125000 0.000000 0.000000 -11.681598 -3.198413 -12.573697 0.000000 0.000000 0.000000 -3.410406 3.995388 34.546571 -13.292094 -21.713577 -2.560390 -17.175007 53.134344 60.474747 0.000000 0.000000 0.000000 7.125000 0.000000 0.000000 87.453471 -77.673099 100.002854
8.933211 14.028352 22.433281 -177.738172 0.937311 193.044092 0.000000 0.000000 0.000000 -15.620635 -18.775030 -32.354732 10.568967 17.716328 61.372033 4.340949 -1.999254 -39.118028 3.103104 -10.854435 -31.796630 0.000000 0.000000 0.000000 25.478830 18.863658 -27.869255 -9.201844 -16.934616 56.783762 -2.815539 -16.783160 -40.982217 -0.101189 -2.051115 5.647004 1.099995 1.407638 12.302420 0.395919 2.129862 -3.634197 -0.650775 0.965475 -10.841969 -6.528799 -2.599844 -9.936783 6.476522 -3.200629 -3.836475 3.123969 -1.625851 0.731114 0.000000 0.000000 0.000000 0.036224 6.159183 -19.320231 12.401879 -20.404349 2.240578 11.156266 30.470349 32.949358 0.000000 0.000000 0.000000 -7.125000 0.000000 0.000000 -11.680410 -2.859670 -12.505796 0.000000 0.000000 0.000000 -3.401773 3.842602 34.378948 -13.187914 -21.561768 -2.522008 -16.852576 53.609305 60.631412 0.000000 0.000000 0.000000 7.125000 0.000000 0.000000 87.775625 -77.547473 100.469432
8.935676 14.056184 22.388496 -177.760302 0.831025 192.889870 0.000000 0.000000 0.000000 -15.857181 -18.501614 -31.635274 10.352464 17.603146 60.659724 4.306276 -1.589539 -39.052293 3.302204 -11.168918 -32.851631 0.000000 0.000000 0.000000 25.602021 18.377067 -27.273083 -9.006742 -16.811743 56.113010 -2.806360 -16.655707 -40.845224 -0.098248 -2.020875 5.563526 1.002302 1.350160 11.925274 0.439178 2.033186 -3.535435 -0.515500 0.932111 -10.514515 -6.483177 -2.586263 -10.165176 6.366172 -3.174857 -3.620471 3.076490 -1.608596 0.835617 0.000000 0.000000 0.000000 -0.142694 5.992233 -18.956366 12.286774 -20.233288 2.200487 11.027599 31.580339 32.593609 0.000000 0.000000 0.000000 -7.125000 0.000000 0.000000 -11.723161 -2.492527 -12.481501 0.000000 0.000000 0.000000 -3.390529 3.751170 34.249911 -13.090279 -21.419351 -2.486146 -16.564646 54.105577 60.789496 0.000000 0.000000 0.000000 7.125000 0.000000 0.000000 88.137673 -77.432914 100.965355
8.937026 14.093147 22.335218 -177.747925 0.748097 192.621508 0.000000 0.000000 0.000000 -16.099832 -18.203884 -30.698313 10.099967 17.463845 59.819418 4.270382 -1.396904 -38.931558 3.359027 -11.254378 -33.143060 0.000000 0.000000 0.000000 25.799270 17.828415 -26.410780 -8.760940 -16.649319 55.256501 -2.777273 -16.547630 -40.631041 -0.088459 -1.915780 5.273110 0.929613 1.287373 12.208602 0.465395 1.953128 -3.795021 -0.441012 0.896836 -10.977707 -6.268149 -2.587389 -10.308415 6.092521 -3.168781 -3.013365 2.941522 -1.592562 1.046987 0.000000 0.000000 0.000000 -0.229504 6.608285 -18.945114 12.327113 -20.293374 2.214439 10.671077 32.365004 32.368511 0.000000 0.000000 0.000000 -7.125000 0.000000 0.000000 -11.905164 -2.221633 -12.628735 0.000000 0.000000 0.000000 -3.320091 4.325308 34.262513 -13.024286 -21.322695 -2.462122 -16.496290 54.631949 61.035973 0.000000 0.000000 0.000000 7.125000 0.000000 0.000000 89.079023 -77.374628 101.996833
8.937780 14.131742 22.280668 -177.732723 0.694593 192.323172 0.000000 0.000000 0.000000 -16.350989 -17.882693 -29.706286 9.836611 17.315521 58.938813 4.236246 -1.287251 -38.798128 3.366920 -11.265657 -33.182211 0.000000 0.000000 0.000000 25.998810 17.267555 -25.490962 -8.501313 -16.474152 54.346229 -2.737374 -16.464851 -40.384828 -0.075390 -1.761410 4.846982 0.872524 1.242116 12.341498 0.485869 1.892873 -3.951364 -0.380144 0.871212 -11.234805 -6.074951 -2.599577 -10.466076 5.846599 -3.179073 -2.491628 2.819609 -1.587167 1.235242 0.000000 0.000000 0.000000 -0.289385 7.093694 -19.080056 12.378091 -20.369200 2.232142 10.308560 33.035754 32.127422 0.000000 0.000000 0.000000 -7.125000 0.000000 0.000000 -12.090101 -1.934905 -12.775042 0.000000 0.000000 0.000000 -3.260355 4.752372 34.343316 -12.960285 -21.228912 -2.438868 -16.365539 54.986125 61.343715 0.000000 0.000000 0.000000 7.125000 0.000000 0.000000 90.193260 -77.284423 103.237246
8.936993 14.174556 22.222832 -177.710219 0.717153 191.947352 0.000000 0.000000 0.000000 -16.624133 -17.500853 -28.571907 9.545182 17.143871 57.954030 4.206653 -1.392121 -38.631878 3.248323 -11.085174 -32.569197 0.000000 0.000000 0.000000 26.204273 16.675132 -24.422464 -8.205945 -16.266045 53.296972 -2.669524 -16.447466 -40.055817 -0.053842 -1.479658 4.070026 0.855758 1.242172 12.085513 0.491495 1.883816 -3.840812 -0.354489 0.870537 -10.959129 -5.938182 -2.640366 -10.661018 5.672361 -3.231676 -2.190578 2.731449 -1.609278 1.363741 0.000000 0.000000 0.000000 -0.279652 7.241377 -19.592926 12.456575 -20.485715 2.259541 9.930546 33.412023 31.844995 0.000000 0.000000 0.000000 -7.125000 0.000000 0.000000 -12.282624 -1.607244 -12.918956 0.000000 0.000000 0.000000 -3.228287 4.799237 34.600426 -12.901437 -21.142552 -2.417602 -16.073491 54.895152 61.809833 0.000000 0.000000 0.000000 7.125000 0.000000 0.000000 91.754431 -77.111704 105.017777
8.938095 14.220136 22.171203 -177.738499 0.594526 191.583100 0.000000 0.000000 0.000000 -16.898491 -17.228116 -27.444383 9.237869 16.955574 56.905061 4.154009 -1.495834 -38.354974 3.174134 -10.971670 -32.184376 0.000000 0.000000 0.000000 26.361293 15.949682 -23.416515 -7.895173 -16.038188 52.178591 -2.593069 -16.437869 -39.688577 -0.036667 -1.220985 3.357283 0.796869 1.199964 11.895125 0.512977 1.814945 -3.759151 -0.277824 0.844046 -10.757345 -5.906875 -2.686995 -10.836042 5.572098 -3.279117 -1.839929 2.688967 -1.625661 1.510015 0.000000 0.000000 0.000000 -0.324936 7.349280 -20.102185 12.490763 -20.536521 2.271479 9.620245 33.803980 31.576082 0.000000 0.000000 0.000000 -7.125000 0.000000 0.000000 -12.439231 -1.302803 -13.026672 0.000000 0.000000 0.000000 -3.254367 4.876037 34.982777 -12.866062 -21.090613 -2.404828 -15.633123 54.514819 62.288477 0.000000 0.000000 0.000000 7.125000 0.000000 0.000000 93.174195 -76.889525 106.703142
8.941077 14.268463 22.125745 -177.817264 0.327570 191.230347 0.000000 0.000000 0.000000 -17.174054 -17.063836 -26.323675 8.914765 16.750730 55.792286 4.078451 -1.598396 -37.968071 3.144091 -10.924749 -32.026397 0.000000 0.000000 0.000000 26.470157 15.091992 -22.472747 -7.569088 -15.790698 50.991496 -2.508060 -16.436012 -39.283333 -0.023840 -0.985253 2.708375 0.696107 1.115742 11.769945 0.550222 1.686615 -3.706210 -0.150451 0.791892 -10.629015 -5.980408 -2.739430 -10.991264 5.545375 -3.321425 -1.439973 2.691893 -1.636350 1.673958 0.000000 0.000000 0.000000 -0.424911 7.417636 -20.607853 12.480917 -20.522006 2.268047 9.377256 34.211531 31.320603 0.000000 0.000000 0.000000 -7.125000 0.000000 0.000000 -12.560135 -1.021445 -13.098405 0.000000 0.000000 0.000000 -3.338251 4.982594 35.489627 -12.854023 -21.072891 -2.400495 -15.045314 53.846839 62.779575 0.000000 0.000000 0.000000 7.125000 0.000000 0.000000 94.453388 -76.618181 108.293906
8.944181 14.322209 22.075276 -177.887474 0.090066 190.878002 0.000000 0.000000 0.000000 -17.451736 -16.826722 -25.136692 8.562699 16.513339 54.558000 3.992791 -1.683525 -37.532002 3.116492 -10.881249 -31.880475 0.000000 0.000000 0.000000 26.576088 14.218130 -21.445350 -7.213551 -15.503330 49.667411 -2.438000 -16.246532 -38.797597 -0.024007 -0.996007 2.737861 0.600233 1.034575 11.631812 0.576631 1.564639 -3.714615 -0.040104 0.741979 -10.560198 -6.057199 -2.758340 -11.027094 5.554375 -3.321491 -1.002542 2.711071 -1.624676 1.828532 0.000000 0.000000 0.000000 -0.545293 7.537848 -20.963171 12.430704 -20.447407 2.250521 9.176957 34.772895 31.106063 0.000000 0.000000 0.000000 -7.125000 0.000000 0.000000 -12.660549 -0.786198 -13.156490 0.000000 0.000000 0.000000 -3.372358 5.249890 35.896800 -12.866749 -21.091585 -2.405084 -14.393348 53.189368 63.039463 0.000000 0.000000 0.000000 7.125000 0.000000 0.000000 94.779678 -76.382398 108.884310
